<svg viewBox="0 0 24 24" fill="currentColor" xmlns="http://www.w3.org/2000/svg">
    <path
        d="M12.152 6.896c-.948 0-2.415-1.078-3.96-1.04-2.04.027-3.91 1.183-4.961 3.014-2.117 3.675-.546 9.103 1.519 12.09 1.013 1.454 2.208 3.09 3.792 3.039 1.52-.065 2.09-.987 3.935-.987 1.831 0 2.37.94 3.96.988 1.64.04 2.65-1.42 3.65-2.88 1.15-1.68 1.63-3.32 1.65-3.41-.03-.016-3.19-1.22-3.21-4.88-.02-3.06 2.5-4.53 2.61-4.59-1.44-2.1-3.66-2.39-4.47-2.43-1.92-.12-3.64 1.1-4.507 1.1zm-.243-1.609c.81-.98 1.35-2.34 1.2-3.71-1.16.05-2.59.78-3.42 1.76-.66.77-1.28 2.16-1.1 3.5  1.29.1 2.51-.57 3.32-1.55z" />
</svg>